<svg
    width="263"
    height="89"
    viewBox="0 0 263 89"
    fill="none"
    xmlns="http://www.w3.org/2000/svg"
>
    <path
        fill-rule="evenodd"
        clip-rule="evenodd"
        d="M194.46 0.0695161C191.014 0.340374 187.689 1.19304 184.954 2.50703C182.533 3.67045 181.024 4.74438 179.296 6.5334C177.688 8.19844 176.656 9.85728 176.068 11.7237C175.476 13.6016 175.499 12.9523 175.499 27.9247V41.6616H180.452H185.404L185.406 28.6386L185.407 15.6157L185.737 14.8592C186.259 13.6648 186.786 12.8792 187.652 12.0033C188.874 10.7681 190.19 9.99605 192.108 9.38925C193.566 8.92792 194.376 8.81734 196.261 8.82234C197.739 8.82624 198.109 8.86133 199.087 9.0912C200.378 9.39465 201.967 10.0041 202.854 10.5364C204.528 11.5411 205.885 12.9159 206.568 14.2987C207.353 15.8887 207.313 15.0879 207.315 29.1385L207.317 41.6616H212.27H217.222V28.0813C217.222 13.2735 217.237 13.6933 216.651 11.8163C215.679 8.70636 213.057 5.62444 209.614 3.54617C205.424 1.01727 199.549 -0.330421 194.46 0.0695161ZM221.125 20.9648V41.6616H226.127H231.13V25.3598V9.058L237.209 9.0895C243.253 9.12079 243.291 9.12229 243.938 9.35056C245.71 9.97626 247.241 10.973 248.797 12.5162C250.82 14.5214 252.137 16.6515 252.759 18.9244C253.044 19.9655 253.067 21.8994 252.806 22.8645C252.16 25.2562 250.716 27.6003 248.677 29.5652C247.175 31.0128 245.756 31.9395 244.126 32.5364L243.387 32.8073L239.06 32.8401L234.732 32.8728V37.2672V41.6616L238.96 41.6596C243.527 41.6575 244.454 41.5895 246.305 41.1204C248.557 40.5497 251.292 39.3326 253.343 37.9885C256.865 35.6798 259.936 32.2642 261.503 28.9136C262.155 27.5195 262.791 25.3499 262.872 24.2435C262.886 24.0624 262.92 27.7388 262.948 32.413C262.979 37.4022 263 32.6335 263 20.8648C263 9.21378 262.979 4.41923 262.949 9.41665C262.921 14.1459 262.866 17.7453 262.827 17.4154C262.622 15.6987 261.755 13.295 260.724 11.5863C259.339 9.29027 257.142 6.79676 255.144 5.2508C251.584 2.49693 247.602 0.797602 243.716 0.373968C243.093 0.306079 238.867 0.268085 231.935 0.268085H221.125V20.9648ZM0.0996572 20.9648V40.9617L11.6312 40.9602C24.9494 40.9586 27.3424 40.8741 30.1923 40.3052C33.2149 39.7019 35.4196 38.6456 37.1542 36.9698C39.4944 34.709 40.4214 32.1959 40.4222 28.1097C40.4225 26.4753 40.3011 25.8832 39.7237 24.7041C39.2256 23.6873 38.3349 22.7088 37.0056 21.7181L36.0198 20.9834L36.8633 20.4225C38.6865 19.2103 39.7699 17.7835 40.2288 15.99C40.3764 15.4134 40.4225 14.8902 40.4225 13.7878C40.4225 11.453 40.0208 9.37265 39.267 7.8021C38.5841 6.37952 37.1254 4.72139 35.7145 3.76394C34.371 2.85228 32.2762 2.04281 30.1667 1.62017C27.3767 1.06126 24.7529 0.970074 11.4311 0.968975L0.0996572 0.967975V20.9648ZM47.0262 20.9648V40.9617H51.8289H56.6316V25.207V9.45224L63.0102 9.49393C68.1643 9.52763 69.5931 9.56622 70.453 9.6947C74.0774 10.2362 76.5595 11.4119 77.3122 12.9437C77.5598 13.4473 77.5927 13.624 77.5867 14.4159C77.5786 15.5019 77.3328 16.2222 76.7412 16.8938C75.8181 17.9417 74.3685 18.5193 71.49 18.9861C70.323 19.1754 69.6727 19.2014 65.1614 19.2391L60.1336 19.2811V24.0224V28.7636H65.9764C71.5469 28.7636 71.8495 28.773 72.4705 28.9647C74.0568 29.4542 75.9183 31.4008 76.989 33.6894C77.8354 35.4984 77.8436 35.5439 77.8436 38.4125V40.9617H82.6543H87.465L87.4203 36.9873C87.3841 33.7721 87.3444 32.8826 87.2122 32.3306C86.7927 30.579 86.0454 28.8705 85.0451 27.376C84.4672 26.5127 83.0477 24.9535 82.4059 24.4771C82.2462 24.3585 82.1336 24.2482 82.1557 24.232C84.2958 22.6671 85.7101 21.1233 86.4485 19.5466C87.6028 17.0813 87.7566 12.5453 86.7907 9.44954C85.6758 5.8765 82.3765 3.15183 77.6935 1.93702C74.4211 1.08816 72.0483 0.971274 58.0574 0.969475L47.0262 0.967975V20.9648ZM9.50497 20.9638V32.4764L17.0843 32.437C25.2899 32.3942 25.6363 32.3737 27.6401 31.8114C29.9242 31.1705 30.9514 30.1685 30.7833 28.7454C30.6042 27.2291 29.3722 26.4378 26.5146 26.0033C25.6722 25.8753 24.2394 25.8335 19.2855 25.7925L13.107 25.7413V20.9638V16.1865L19.3355 16.1376C24.3962 16.0979 25.7611 16.0583 26.6146 15.9265C29.4099 15.4951 30.603 14.7102 30.7833 13.1843C30.9949 11.3929 29.3629 10.2897 25.6371 9.7054C24.7219 9.56182 23.4528 9.53063 17.0342 9.49413L9.50497 9.45124V20.9638ZM15.6191 47.2688C12.0356 47.4384 10.2184 47.6999 8.25427 48.329C6.02581 49.0428 4.44031 49.9995 3.05053 51.4686C0.884901 53.7581 -0.000999719 56.3771 8.46527e-07 60.487C0.000901356 63.9423 0.675483 65.9415 2.49751 67.8879C4.05329 69.5497 6.16279 70.7118 9.07143 71.5092C11.7585 72.2459 14.525 72.5261 20.4111 72.6581C24.5237 72.7503 25.8988 72.8401 27.3998 73.1141C29.5508 73.507 30.3918 74.2397 30.4944 75.8102C30.6142 77.6417 29.3275 78.6266 25.9643 79.2778C24.8847 79.4868 24.628 79.4916 12.5317 79.5277L0.199714 79.5644V83.968V88.3717L12.4316 88.3254C26.1333 88.2736 27.832 88.2049 30.609 87.5898C33.3731 86.9776 35.3953 85.9649 37.0541 84.3624C39.2484 82.2425 40.171 80.0301 40.4241 76.2814C40.6259 73.2917 40.1876 70.8984 39.1072 69.0895C38.7042 68.4148 37.3951 67.003 36.6256 66.4131C35.2309 65.3441 33.3173 64.4812 31.0758 63.9105C28.3121 63.2069 26.103 62.9891 20.4111 62.8592C15.0655 62.7372 13.2734 62.5885 11.8484 62.1487C10.6117 61.7669 9.9036 60.7705 9.9062 59.4156C9.9093 57.8147 11.3911 56.7729 14.4077 56.2508C16.2418 55.9333 18.9816 55.8647 29.9415 55.8619L40.2223 55.8593V51.51V47.1607L28.7408 47.1759C22.426 47.1843 16.5212 47.2261 15.6191 47.2688ZM47.0262 67.7575V88.3542H51.929H56.8317V72.0978V55.8414L63.0603 55.887C69.3937 55.9334 70.316 55.9807 72.366 56.3642C75.1802 56.8906 77.4797 58.075 78.1938 59.366C78.4763 59.8766 78.494 59.9738 78.494 61.0085C78.494 61.9862 78.4651 62.1695 78.2333 62.6583C77.5611 64.0766 76.2204 64.8805 73.5636 65.4587C71.5726 65.892 70.3992 65.9735 65.3616 66.028L60.5338 66.0804V70.9328V75.785L64.9113 75.7253C69.3047 75.6654 70.82 75.587 73.141 75.2998C76.0178 74.9437 79.2008 74.102 81.1859 73.1724C85.0443 71.3656 87.6454 67.9814 88.4086 63.7752C88.495 63.2984 88.591 62.2034 88.6217 61.3421C88.7556 57.5891 88.0025 54.8549 86.2578 52.7598C84.3692 50.4921 81.9636 49.0448 78.6316 48.1717C75.2654 47.2895 72.712 47.1639 58.1075 47.1621L47.0262 47.1607V67.7575ZM197.511 47.2693C191.49 47.8449 185.092 50.874 180.747 55.2071C178.366 57.5812 176.931 59.7204 176.118 62.1084C175.539 63.8082 175.481 64.3969 175.522 68.1378C175.558 71.4118 175.567 71.5338 175.823 72.4591C176.151 73.6423 176.661 74.8631 177.265 75.9062C178.395 77.8599 180.653 80.4348 182.603 81.9919C186.512 85.1141 191.407 87.2996 196.23 88.0762C197.513 88.2828 197.92 88.292 207.392 88.3286L217.222 88.3666V83.964V79.5614L207.642 79.5335L198.062 79.5056L197.223 79.2222C193.273 77.8869 189.575 74.761 187.86 71.3069C187.118 69.8121 186.971 69.2047 186.966 67.6075C186.961 66.0547 187.105 65.4167 187.762 64.0787C189.048 61.4622 191.987 58.6715 195.094 57.1154C196.095 56.6138 197.699 56.0947 198.644 55.9659C199.149 55.8971 202.581 55.8593 208.325 55.8593H217.222V51.51V47.1607L207.792 47.1743C202.605 47.1818 197.979 47.2245 197.511 47.2693ZM243.137 47.2278C240.33 47.5092 237.912 48.1137 235.379 49.1671C229.584 51.577 224.643 55.9297 222.428 60.5761C221.405 62.7238 221.126 64.2518 221.125 67.7253C221.125 70.3118 221.205 71.1753 221.577 72.6022C223.371 79.4689 231.685 86.1802 240.526 87.898C242.62 88.3048 244.031 88.3534 253.768 88.3538L262.948 88.3542V83.9549V79.5556H253.356H243.763L242.775 79.3057C241.579 79.0033 239.765 78.1333 238.465 77.2389C235.482 75.1863 233.252 72.3914 232.575 69.8571C232.319 68.8985 232.337 66.8554 232.61 65.8453C233.802 61.4395 239.334 56.586 243.87 55.9663C244.378 55.8968 247.86 55.8593 253.8 55.8593H262.948V51.51V47.1607L253.218 47.1767C247.866 47.1855 243.33 47.2085 243.137 47.2278ZM238.434 67.7575V72.6567H249.391H260.347V67.7575V62.8582H249.391H238.434V67.7575Z"
        fill="#241C24"
    />
    <path
        fill-rule="evenodd"
        clip-rule="evenodd"
        d="M104.673 44.5637C90.7973 68.548 79.4446 88.209 79.4446 88.255C79.4446 88.465 83.3879 86.0267 86.1484 84.1097C87.8268 82.9441 91.9917 80.0628 95.4036 77.7068C108.908 68.3822 115.382 63.7851 122.382 58.5512C123.463 57.7434 124.769 56.832 125.284 56.526C128.041 54.8887 130.33 54.6384 132.915 55.6914C134.122 56.1832 135.147 56.8224 137.263 58.4027C144.275 63.6397 150.637 68.1653 162.642 76.4564C165.613 78.5088 170.003 81.5467 172.397 83.2073C176.317 85.926 180.402 88.5001 180.402 88.2511C180.402 88.1618 130.113 1.18476 129.976 1.03719C129.935 0.992592 118.548 20.5795 104.673 44.5637Z"
        fill="white"
    />
</svg>
